<svg xmlns="http://www.w3.org/2000/svg" width="800" height="200" viewBox="0 0 800 200">
  <defs>
    <linearGradient id="bg" x1="0%" y1="0%" x2="100%" y2="100%">
      <stop offset="0%" style="stop-color:#0d1218"/>
      <stop offset="100%" style="stop-color:#0a1520"/>
    </linearGradient>
    <filter id="glow"><feGaussianBlur stdDeviation="3" result="b"/><feMerge><feMergeNode in="b"/><feMergeNode in="SourceGraphic"/></feMerge></filter>
  </defs>

  <rect width="800" height="200" rx="16" fill="url(#bg)" stroke="#1e2d3d" stroke-width="1.5"/>
  <rect width="800" height="3" rx="2" fill="#f59e0b"/>

  <text x="36" y="38" font-family="monospace" font-size="11" fill="#6b8097" letter-spacing="2">AWARDS &amp; RECOGNITION</text>

  <!-- Award 1 -->
  <rect x="28" y="52" width="360" height="66" rx="10" fill="#131b24" stroke="#1e2d3d" stroke-width="1"/>
  <rect x="28" y="52" width="360" height="3" rx="1" fill="#f59e0b"/>
  <text x="50" y="80" font-family="sans-serif" font-size="22">🏅</text>
  <text x="82" y="76" font-family="sans-serif" font-size="12" font-weight="bold" fill="#e2eaf4">U.S. Peace Corps</text>
  <text x="82" y="91" font-family="sans-serif" font-size="11" fill="#6b8097">Executive Leadership Certificate</text>
  <text x="82" y="106" font-family="monospace" font-size="10" fill="#f59e0b">Sole participant from Kyiv · 2024</text>

  <!-- Award 2 -->
  <rect x="412" y="52" width="360" height="66" rx="10" fill="#131b24" stroke="#1e2d3d" stroke-width="1"/>
  <rect x="412" y="52" width="360" height="3" rx="1" fill="#00d4ff"/>
  <text x="434" y="80" font-family="sans-serif" font-size="22">🎖️</text>
  <text x="466" y="76" font-family="sans-serif" font-size="12" font-weight="bold" fill="#e2eaf4">Honour Roll</text>
  <text x="466" y="91" font-family="sans-serif" font-size="11" fill="#6b8097">Academic Excellence</text>
  <text x="466" y="106" font-family="monospace" font-size="10" fill="#00d4ff">2024–2025</text>

  <!-- Award 3 -->
  <rect x="28" y="130" width="360" height="58" rx="10" fill="#131b24" stroke="#1e2d3d" stroke-width="1"/>
  <rect x="28" y="130" width="360" height="3" rx="1" fill="#a78bfa"/>
  <text x="50" y="155" font-family="sans-serif" font-size="22">🚀</text>
  <text x="82" y="152" font-family="sans-serif" font-size="12" font-weight="bold" fill="#e2eaf4">Certificate of Achievement</text>
  <text x="82" y="167" font-family="sans-serif" font-size="11" fill="#6b8097">Entrepreneurship · 2024–2025</text>

  <!-- Award 4 -->
  <rect x="412" y="130" width="360" height="58" rx="10" fill="#131b24" stroke="#1e2d3d" stroke-width="1"/>
  <rect x="412" y="130" width="360" height="3" rx="1" fill="#10b981"/>
  <text x="434" y="155" font-family="sans-serif" font-size="22">🔬</text>
  <text x="466" y="152" font-family="sans-serif" font-size="12" font-weight="bold" fill="#e2eaf4">Certificate of Achievement</text>
  <text x="466" y="167" font-family="sans-serif" font-size="11" fill="#6b8097">Science · 2024–2025</text>
</svg>
