<svg width="800" height="292" viewBox="0 0 800 292" xmlns="http://www.w3.org/2000/svg">
  <defs>
    <linearGradient id="bg" x1="0" y1="0" x2="0" y2="1"><stop offset="0%" stop-color="#161b22"/><stop offset="100%" stop-color="#0d1117"/></linearGradient>
    <linearGradient id="b1" x1="0" y1="0" x2="1" y2="0"><stop offset="0%" stop-color="#58a6ff"/><stop offset="100%" stop-color="#388bfd"/></linearGradient>
    <linearGradient id="b2" x1="0" y1="0" x2="1" y2="0"><stop offset="0%" stop-color="#3fb950"/><stop offset="100%" stop-color="#2ea043"/></linearGradient>
    <linearGradient id="b3" x1="0" y1="0" x2="1" y2="0"><stop offset="0%" stop-color="#d2a8ff"/><stop offset="100%" stop-color="#a371f7"/></linearGradient>
    <linearGradient id="b4" x1="0" y1="0" x2="1" y2="0"><stop offset="0%" stop-color="#ffa657"/><stop offset="100%" stop-color="#e3832a"/></linearGradient>
    <linearGradient id="b5" x1="0" y1="0" x2="1" y2="0"><stop offset="0%" stop-color="#79c0ff"/><stop offset="100%" stop-color="#58a6ff"/></linearGradient>
  </defs>
  <rect width="800" height="292" rx="8" fill="url(#bg)" stroke="#21262d" stroke-width="1"/>
  <text x="24" y="34" fill="#6e7681" font-family="monospace" font-size="10" font-weight="600" letter-spacing="2">CORE SKILLS</text>
  <line x1="24" y1="44" x2="776" y2="44" stroke="#21262d" stroke-width="1"/>
  <text x="24" y="63" fill="#6e7681" font-family="monospace" font-size="9" letter-spacing="1">SKILL</text>
  <text x="764" y="63" fill="#6e7681" font-family="monospace" font-size="9" text-anchor="end" letter-spacing="1">SCORE</text>

  <!-- Mathematics 92% -->
  <text x="24" y="90" fill="#c9d1d9" font-family="monospace" font-size="12">Mathematics</text>
  <rect x="210" y="82" width="524" height="8" rx="4" fill="#21262d"/>
  <rect x="210" y="82" width="482" height="8" rx="4" fill="url(#b1)"/>
  <text x="764" y="90" fill="#8b949e" font-family="monospace" font-size="11" text-anchor="end">92%</text>

  <!-- Education Design 90% -->
  <text x="24" y="120" fill="#c9d1d9" font-family="monospace" font-size="12">Education Design</text>
  <rect x="210" y="112" width="524" height="8" rx="4" fill="#21262d"/>
  <rect x="210" y="112" width="472" height="8" rx="4" fill="url(#b2)"/>
  <text x="764" y="120" fill="#8b949e" font-family="monospace" font-size="11" text-anchor="end">90%</text>

  <!-- Research 88% -->
  <text x="24" y="150" fill="#c9d1d9" font-family="monospace" font-size="12">Research</text>
  <rect x="210" y="142" width="524" height="8" rx="4" fill="#21262d"/>
  <rect x="210" y="142" width="461" height="8" rx="4" fill="url(#b1)"/>
  <text x="764" y="150" fill="#8b949e" font-family="monospace" font-size="11" text-anchor="end">88%</text>

  <!-- Systems Thinking 85% -->
  <text x="24" y="180" fill="#c9d1d9" font-family="monospace" font-size="12">Systems Thinking</text>
  <rect x="210" y="172" width="524" height="8" rx="4" fill="#21262d"/>
  <rect x="210" y="172" width="445" height="8" rx="4" fill="url(#b3)"/>
  <text x="764" y="180" fill="#8b949e" font-family="monospace" font-size="11" text-anchor="end">85%</text>

  <!-- Audio / Visual 82% -->
  <text x="24" y="210" fill="#c9d1d9" font-family="monospace" font-size="12">Audio / Visual</text>
  <rect x="210" y="202" width="524" height="8" rx="4" fill="#21262d"/>
  <rect x="210" y="202" width="430" height="8" rx="4" fill="url(#b3)"/>
  <text x="764" y="210" fill="#8b949e" font-family="monospace" font-size="11" text-anchor="end">82%</text>

  <!-- Programming 80% -->
  <text x="24" y="240" fill="#c9d1d9" font-family="monospace" font-size="12">Programming</text>
  <rect x="210" y="232" width="524" height="8" rx="4" fill="#21262d"/>
  <rect x="210" y="232" width="419" height="8" rx="4" fill="url(#b4)"/>
  <text x="764" y="240" fill="#8b949e" font-family="monospace" font-size="11" text-anchor="end">80%</text>

  <!-- Scientific Writing 78% -->
  <text x="24" y="270" fill="#c9d1d9" font-family="monospace" font-size="12">Scientific Writing</text>
  <rect x="210" y="262" width="524" height="8" rx="4" fill="#21262d"/>
  <rect x="210" y="262" width="409" height="8" rx="4" fill="url(#b5)"/>
  <text x="764" y="270" fill="#8b949e" font-family="monospace" font-size="11" text-anchor="end">78%</text>
</svg>
