<svg xmlns="http://www.w3.org/2000/svg" width="800" height="340" viewBox="0 0 800 340">
  <defs>
    <linearGradient id="bg" x1="0%" y1="0%" x2="100%" y2="100%">
      <stop offset="0%" style="stop-color:#0d1218"/>
      <stop offset="100%" style="stop-color:#0a1520"/>
    </linearGradient>
    <filter id="glow"><feGaussianBlur stdDeviation="3" result="b"/><feMerge><feMergeNode in="b"/><feMergeNode in="SourceGraphic"/></feMerge></filter>
  </defs>

  <rect width="800" height="340" rx="16" fill="url(#bg)" stroke="#1e2d3d" stroke-width="1.5"/>
  <rect width="800" height="3" rx="2" fill="#10b981"/>

  <text x="36" y="38" font-family="monospace" font-size="11" fill="#6b8097" letter-spacing="2">CAREER TIMELINE · 2025–PRESENT</text>

  <!-- Vertical line -->
  <line x1="170" y1="60" x2="170" y2="320" stroke="#1e2d3d" stroke-width="2"/>

  <!-- Entry 1: May 2025 -->
  <circle cx="170" cy="82" r="7" fill="#f59e0b" filter="url(#glow)"/>
  <text x="36" y="78" font-family="monospace" font-size="10" fill="#f59e0b" text-anchor="middle">May</text>
  <text x="36" y="90" font-family="monospace" font-size="10" fill="#f59e0b" text-anchor="middle">2025</text>
  <rect x="190" y="65" width="580" height="38" rx="8" fill="#131b24" stroke="#1e2d3d" stroke-width="1"/>
  <rect x="190" y="65" width="4" height="38" rx="2" fill="#f59e0b"/>
  <text x="206" y="80" font-family="sans-serif" font-size="13" font-weight="bold" fill="#e2eaf4">Freelance Web Developer</text>
  <text x="206" y="96" font-family="sans-serif" font-size="11" fill="#6b8097">Hospitality · Retail · Automotive sectors</text>

  <!-- Entry 2: Jun 2025 -->
  <circle cx="170" cy="148" r="7" fill="#00d4ff" filter="url(#glow)"/>
  <text x="36" y="144" font-family="monospace" font-size="10" fill="#00d4ff" text-anchor="middle">Jun</text>
  <text x="36" y="156" font-family="monospace" font-size="10" fill="#00d4ff" text-anchor="middle">2025</text>
  <rect x="190" y="131" width="580" height="38" rx="8" fill="#131b24" stroke="#1e2d3d" stroke-width="1"/>
  <rect x="190" y="131" width="4" height="38" rx="2" fill="#00d4ff"/>
  <text x="206" y="146" font-family="sans-serif" font-size="13" font-weight="bold" fill="#e2eaf4">🚀 Founded ERTHIOX</text>
  <text x="206" y="162" font-family="sans-serif" font-size="11" fill="#6b8097">Free global e-learning org · 31+ courses · 28 cert programmes</text>

  <!-- Entry 3: Jun–Aug 2025 -->
  <circle cx="170" cy="214" r="7" fill="#a78bfa" filter="url(#glow)"/>
  <text x="36" y="206" font-family="monospace" font-size="10" fill="#a78bfa" text-anchor="middle">Jun–Aug</text>
  <text x="36" y="218" font-family="monospace" font-size="10" fill="#a78bfa" text-anchor="middle">2025</text>
  <rect x="190" y="197" width="580" height="38" rx="8" fill="#131b24" stroke="#1e2d3d" stroke-width="1"/>
  <rect x="190" y="197" width="4" height="38" rx="2" fill="#a78bfa"/>
  <text x="206" y="212" font-family="sans-serif" font-size="13" font-weight="bold" fill="#e2eaf4">Volunteer + IT Workshop Host</text>
  <text x="206" y="228" font-family="sans-serif" font-size="11" fill="#6b8097">Newcomer Centre of Peel · Community programs · Career simulations</text>

  <!-- Entry 4: Dec 2025 -->
  <circle cx="170" cy="280" r="7" fill="#10b981" filter="url(#glow)"/>
  <text x="36" y="276" font-family="monospace" font-size="10" fill="#10b981" text-anchor="middle">Dec</text>
  <text x="36" y="288" font-family="monospace" font-size="10" fill="#10b981" text-anchor="middle">2025</text>
  <rect x="190" y="263" width="580" height="38" rx="8" fill="#131b24" stroke="#1e2d3d" stroke-width="1"/>
  <rect x="190" y="263" width="4" height="38" rx="2" fill="#10b981"/>
  <text x="206" y="278" font-family="sans-serif" font-size="13" font-weight="bold" fill="#e2eaf4">🎮 Founded VILLAGEZ — Gamified Learning Platform</text>
  <text x="206" y="294" font-family="sans-serif" font-size="11" fill="#6b8097">Multiplayer · JS coding game · 100+ interactive cases · Free forever</text>
</svg>
